<svg xmlns="http://www.w3.org/2000/svg" xmlns:xlink="http://www.w3.org/1999/xlink" width="500" zoomAndPan="magnify" viewBox="0 0 375 374.999991" height="500" preserveAspectRatio="xMidYMid meet" version="1.0"><defs><g/><clipPath id="773798d293"><path d="M 37.5 134.726562 L 141 134.726562 L 141 238.226562 L 37.5 238.226562 Z M 37.5 134.726562 " clip-rule="nonzero"/></clipPath><clipPath id="7a4fe1134d"><rect x="0" width="190" y="0" height="185"/></clipPath></defs><g clip-path="url(#773798d293)"><path fill="#314160" d="M 44.542969 237.203125 C 36.628906 233.53125 35.09375 223.542969 41.550781 217.722656 C 46.28125 213.460938 52.738281 213.707031 57.359375 218.328125 C 61.980469 222.945312 62.226562 229.40625 57.960938 234.132812 C 54.441406 238.039062 49.019531 239.28125 44.542969 237.203125 Z M 84.191406 236.941406 C 77.71875 233.925781 75.550781 225.601562 79.691406 219.667969 C 81.609375 216.921875 85.886719 214.683594 89.214844 214.683594 C 92.546875 214.683594 96.820312 216.921875 98.742188 219.667969 C 101.640625 223.824219 101.488281 229.695312 98.375 233.78125 C 96.546875 236.175781 92.371094 238.183594 89.214844 238.183594 C 87.835938 238.183594 85.761719 237.671875 84.191406 236.941406 Z M 124.484375 237.21875 C 120.449219 235.382812 117.441406 230.808594 117.433594 226.5 C 117.421875 220.417969 123.167969 214.675781 129.246094 214.6875 C 133.554688 214.695312 138.128906 217.703125 139.96875 221.738281 C 144.273438 231.195312 133.941406 241.527344 124.484375 237.21875 Z M 46.277344 197.730469 C 42.871094 196.851562 40.21875 194.65625 38.746094 191.492188 C 37.140625 188.046875 37.140625 184.890625 38.746094 181.445312 C 42.640625 173.074219 54.550781 172.527344 59.226562 180.503906 C 64.53125 189.558594 56.425781 200.34375 46.277344 197.730469 Z M 87.125 197.96875 C 77.808594 196.230469 74.300781 184.4375 81.199219 178.039062 C 83.609375 175.804688 85.972656 174.871094 89.214844 174.871094 C 95.78125 174.871094 100.816406 179.902344 100.816406 186.46875 C 100.816406 193.773438 94.242188 199.296875 87.125 197.96875 Z M 126.835938 197.90625 C 121.703125 196.917969 117.429688 191.71875 117.429688 186.46875 C 117.429688 183.140625 119.667969 178.863281 122.417969 176.945312 C 128.347656 172.800781 136.671875 174.972656 139.6875 181.445312 C 141.296875 184.902344 141.292969 188.046875 139.667969 191.53125 C 138.277344 194.523438 135.195312 197.148438 132.421875 197.707031 C 131.503906 197.890625 130.402344 198.113281 129.96875 198.199219 C 129.539062 198.289062 128.128906 198.15625 126.835938 197.90625 Z M 45.132812 157.488281 C 39.046875 155.320312 35.78125 147.613281 38.484375 141.796875 C 42.15625 133.882812 52.140625 132.347656 57.960938 138.804688 C 62.226562 143.53125 61.980469 149.992188 57.359375 154.613281 C 53.894531 158.078125 49.609375 159.082031 45.132812 157.488281 Z M 83.929688 156.796875 C 75.328125 152.300781 75.480469 140.054688 84.191406 135.996094 C 87.636719 134.394531 90.796875 134.394531 94.242188 135.996094 C 102.953125 140.054688 103.105469 152.300781 94.503906 156.796875 C 90.761719 158.75 87.667969 158.75 83.929688 156.796875 Z M 125.269531 157.570312 C 121.28125 156.304688 117.425781 150.824219 117.433594 146.4375 C 117.441406 142.128906 120.449219 137.554688 124.484375 135.71875 C 131.976562 132.304688 140.917969 138.171875 140.917969 146.5 C 140.917969 154.488281 133.066406 160.039062 125.269531 157.570312 Z M 125.269531 157.570312 " fill-opacity="1" fill-rule="nonzero"/></g><g transform="matrix(1, 0, 0, 1, 149, 109)"><g clip-path="url(#7a4fe1134d)"><g fill="#22314e" fill-opacity="1"><g transform="translate(0.557802, 128.89346)"><g><path d="M 41.734375 0 L 6.953125 -101.4375 L 20.4375 -101.4375 L 44.625 -28.109375 C 45.0625 -26.753906 45.554688 -25.171875 46.109375 -23.359375 C 46.671875 -21.554688 47.191406 -19.710938 47.671875 -17.828125 C 48.109375 -19.710938 48.578125 -21.519531 49.078125 -23.25 C 49.585938 -24.988281 50.085938 -26.609375 50.578125 -28.109375 L 74.046875 -101.4375 L 87.515625 -101.4375 L 52.890625 0 Z M 41.734375 0 "/></g></g></g><g fill="#22314e" fill-opacity="1"><g transform="translate(92.13448, 128.89346)"><g><path d="M 14.203125 0 L 14.203125 -101.4375 L 54.1875 -101.4375 C 62.300781 -101.4375 68.6875 -100.035156 73.34375 -97.234375 C 78.007812 -94.429688 81.320312 -90.816406 83.28125 -86.390625 C 85.238281 -81.972656 86.21875 -77.375 86.21875 -72.59375 C 86.21875 -68.582031 85.429688 -64.632812 83.859375 -60.75 C 82.296875 -56.863281 79.773438 -53.445312 76.296875 -50.5 C 72.816406 -47.550781 68.25 -45.5 62.59375 -44.34375 L 84.328125 0 L 70.140625 0 L 49.265625 -43.46875 L 26.8125 -43.46875 L 26.8125 0 Z M 26.8125 -55.203125 L 54.484375 -55.203125 C 59.210938 -55.203125 62.96875 -56.046875 65.75 -57.734375 C 68.53125 -59.429688 70.507812 -61.582031 71.6875 -64.1875 C 72.875 -66.800781 73.46875 -69.507812 73.46875 -72.3125 C 73.46875 -74.820312 72.921875 -77.414062 71.828125 -80.09375 C 70.742188 -82.78125 68.828125 -85.050781 66.078125 -86.90625 C 63.328125 -88.769531 59.460938 -89.703125 54.484375 -89.703125 L 26.8125 -89.703125 Z M 26.8125 -55.203125 "/></g></g></g></g></g></svg>